<svg width="400" height="400" viewBox="0 0 400 400" fill="none" xmlns="http://www.w3.org/2000/svg">
<g clip-path="url(#clip0_1235_5052)">
<circle cx="200" cy="200" r="200" fill="#181818"/>
<circle cx="200" cy="200" r="199.5" stroke="white" stroke-opacity="0.2"/>
<path d="M179.256 214.386C163.14 195.748 156.18 179.046 156.18 162.587C156.18 152.905 157.279 146.732 158.622 141.165C150.686 157.746 148 170.211 148 181.951C148 244.038 205.384 252.026 205.384 295.958C205.384 306.609 199.767 321.011 180.599 348C238.349 271.632 253 244.159 253 225.037C253 171.664 195.86 162.708 195.86 102.678C195.86 89.0024 203.797 72.5428 218.57 51C218.57 51 204.529 70.6064 196.959 81.0147C169.977 118.291 159.477 166.702 179.378 214.386H179.256Z" fill="white"/>
</g>
<defs>
<clipPath id="clip0_1235_5052">
<rect width="400" height="400" fill="white"/>
</clipPath>
</defs>
</svg>
