<svg xmlns="http://www.w3.org/2000/svg" width="65" height="64" fill="none" viewBox="0 0 65 64"><rect width="64" height="64" x=".5" fill="#000" rx="32"/><path fill="#F0EDE9" d="M28.7177 32.504C27.5873 31.0309 26.8483 29.3674 26.8483 27.2411C26.8483 25.9799 26.9857 25.1978 27.1599 24.469C26.1432 26.6198 25.7937 28.2229 25.7937 29.7369C25.7937 37.7607 33.1617 38.8018 33.1617 44.4731C33.1617 45.8438 32.431 47.708 29.9702 51.1998C37.3802 41.3191 39.265 37.7689 39.265 35.2997C39.265 28.3989 31.9247 27.2452 31.9247 19.4815C31.9247 17.7105 32.9352 15.5791 34.8385 12.7998C32.4761 15.9344 30.4498 18.8161 29.3634 20.5574C28.2781 22.2987 27.5371 24.512 27.5371 27.3937C27.5381 29.8823 28.1715 31.4547 28.7177 32.504Z"/></svg>